<?xml version="1.0" encoding="UTF-8" standalone="no"?>
<svg
   xmlns:dc="http://purl.org/dc/elements/1.1/"
   xmlns:cc="http://creativecommons.org/ns#"
   xmlns:rdf="http://www.w3.org/1999/02/22-rdf-syntax-ns#"
   xmlns:svg="http://www.w3.org/2000/svg"
   xmlns="http://www.w3.org/2000/svg"
   xmlns:sodipodi="http://sodipodi.sourceforge.net/DTD/sodipodi-0.dtd"
   xmlns:inkscape="http://www.inkscape.org/namespaces/inkscape"
   width="16"
   height="16"
   fill="currentColor"
   class="bi bi-google"
   viewBox="0 0 16 16"
   version="1.1"
   id="svg12"
   sodipodi:docname="google.svg"
   inkscape:version="1.0.2 (e86c8708, 2021-01-15)">
  <metadata
     id="metadata18">
    <rdf:RDF>
      <cc:Work
         rdf:about="">
        <dc:format>image/svg+xml</dc:format>
        <dc:type
           rdf:resource="http://purl.org/dc/dcmitype/StillImage" />
      </cc:Work>
    </rdf:RDF>
  </metadata>
  <defs
     id="defs16" />
  <sodipodi:namedview
     pagecolor="#ffffff"
     bordercolor="#666666"
     borderopacity="1"
     objecttolerance="10"
     gridtolerance="10"
     guidetolerance="10"
     inkscape:pageopacity="0"
     inkscape:pageshadow="2"
     inkscape:window-width="1761"
     inkscape:window-height="859"
     id="namedview14"
     showgrid="false"
     inkscape:zoom="37.375"
     inkscape:cx="14.421405"
     inkscape:cy="8"
     inkscape:window-x="0"
     inkscape:window-y="25"
     inkscape:window-maximized="0"
     inkscape:current-layer="svg12" />
  <path
     d="m 15.732291,6.558 a 9.42,9.42 0 0 1 0.139,1.626 c 0,2.434 -0.87,4.492 -2.384,5.885 h 0.002 c -1.324,1.223 -3.144,1.931 -5.302,1.931 a 8,8 0 1 1 0,-16 7.689,7.689 0 0 1 5.352,2.082 l -2.284,2.284 a 4.347,4.347 0 0 0 -3.068,-1.2 c -2.087,0 -3.86,1.408 -4.492,3.304 a 4.792,4.792 0 0 0 0,3.063 h 0.003 c 0.635,1.893 2.405,3.301 4.492,3.301 1.078,0 2.004,-0.276 2.722,-0.764 h -0.003 a 3.702,3.702 0 0 0 1.599,-2.431 h -4.321 v -3.08 h 7.545 z"
     id="path10" />
</svg>
