<?xml version="1.0" encoding="UTF-8" standalone="no"?>
<svg
   xmlns:dc="http://purl.org/dc/elements/1.1/"
   xmlns:cc="http://creativecommons.org/ns#"
   xmlns:rdf="http://www.w3.org/1999/02/22-rdf-syntax-ns#"
   xmlns:svg="http://www.w3.org/2000/svg"
   xmlns="http://www.w3.org/2000/svg"
   xmlns:sodipodi="http://sodipodi.sourceforge.net/DTD/sodipodi-0.dtd"
   xmlns:inkscape="http://www.inkscape.org/namespaces/inkscape"
   width="16"
   height="9"
   fill="currentColor"
   class="bi bi-keyboard"
   viewBox="0 0 16 9"
   version="1.1"
   id="svg14"
   sodipodi:docname="keyboard.svg"
   inkscape:version="1.0.2 (e86c8708, 2021-01-15)">
  <metadata
     id="metadata20">
    <rdf:RDF>
      <cc:Work
         rdf:about="">
        <dc:format>image/svg+xml</dc:format>
        <dc:type
           rdf:resource="http://purl.org/dc/dcmitype/StillImage" />
        <dc:title></dc:title>
      </cc:Work>
    </rdf:RDF>
  </metadata>
  <defs
     id="defs18" />
  <sodipodi:namedview
     pagecolor="#ffffff"
     bordercolor="#666666"
     borderopacity="1"
     objecttolerance="10"
     gridtolerance="10"
     guidetolerance="10"
     inkscape:pageopacity="0"
     inkscape:pageshadow="2"
     inkscape:window-width="1920"
     inkscape:window-height="1027"
     id="namedview16"
     showgrid="false"
     fit-margin-bottom="-2.7755576e-17"
     fit-margin-top="0"
     fit-margin-left="0"
     fit-margin-right="0"
     inkscape:zoom="37.375"
     inkscape:cx="8"
     inkscape:cy="4"
     inkscape:window-x="0"
     inkscape:window-y="25"
     inkscape:window-maximized="0"
     inkscape:current-layer="svg14" />
  <path
     d="m 14,1 a 1,1 0 0 1 1,1 V 7 A 1,1 0 0 1 14,8 H 2 A 1,1 0 0 1 1,7 V 2 A 1,1 0 0 1 2,1 Z M 2,0 A 2,2 0 0 0 0,2 V 7 A 2,2 0 0 0 2,9 H 14 A 2,2 0 0 0 16,7 V 2 A 2,2 0 0 0 14,0 Z"
     id="path10" />
  <path
     d="M 13,6.25 A 0.25,0.25 0 0 1 13.25,6 h 0.5 A 0.25,0.25 0 0 1 14,6.25 v 0.5 A 0.25,0.25 0 0 1 13.75,7 h -0.5 A 0.25,0.25 0 0 1 13,6.75 Z m 0,-2 A 0.25,0.25 0 0 1 13.25,4 h 0.5 A 0.25,0.25 0 0 1 14,4.25 v 0.5 A 0.25,0.25 0 0 1 13.75,5 h -0.5 A 0.25,0.25 0 0 1 13,4.75 Z m -5,0 A 0.25,0.25 0 0 1 8.25,4 h 0.5 A 0.25,0.25 0 0 1 9,4.25 v 0.5 A 0.25,0.25 0 0 1 8.75,5 H 8.25 A 0.25,0.25 0 0 1 8,4.75 Z m 2,0 A 0.25,0.25 0 0 1 10.25,4 h 1.5 A 0.25,0.25 0 0 1 12,4.25 v 0.5 A 0.25,0.25 0 0 1 11.75,5 h -1.5 A 0.25,0.25 0 0 1 10,4.75 Z m 1,2 A 0.25,0.25 0 0 1 11.25,6 h 0.5 A 0.25,0.25 0 0 1 12,6.25 v 0.5 A 0.25,0.25 0 0 1 11.75,7 h -0.5 A 0.25,0.25 0 0 1 11,6.75 Z m -5,-2 A 0.25,0.25 0 0 1 6.25,4 h 0.5 A 0.25,0.25 0 0 1 7,4.25 v 0.5 A 0.25,0.25 0 0 1 6.75,5 H 6.25 A 0.25,0.25 0 0 1 6,4.75 Z m -2,0 A 0.25,0.25 0 0 1 4.25,4 h 0.5 A 0.25,0.25 0 0 1 5,4.25 v 0.5 A 0.25,0.25 0 0 1 4.75,5 H 4.25 A 0.25,0.25 0 0 1 4,4.75 Z m -2,0 A 0.25,0.25 0 0 1 2.25,4 h 0.5 A 0.25,0.25 0 0 1 3,4.25 v 0.5 A 0.25,0.25 0 0 1 2.75,5 H 2.25 A 0.25,0.25 0 0 1 2,4.75 Z m 11,-2 A 0.25,0.25 0 0 1 13.25,2 h 0.5 A 0.25,0.25 0 0 1 14,2.25 v 0.5 A 0.25,0.25 0 0 1 13.75,3 h -0.5 A 0.25,0.25 0 0 1 13,2.75 Z m -2,0 A 0.25,0.25 0 0 1 11.25,2 h 0.5 A 0.25,0.25 0 0 1 12,2.25 v 0.5 A 0.25,0.25 0 0 1 11.75,3 h -0.5 A 0.25,0.25 0 0 1 11,2.75 Z m -2,0 A 0.25,0.25 0 0 1 9.25,2 h 0.5 A 0.25,0.25 0 0 1 10,2.25 v 0.5 A 0.25,0.25 0 0 1 9.75,3 H 9.25 A 0.25,0.25 0 0 1 9,2.75 Z m -2,0 A 0.25,0.25 0 0 1 7.25,2 h 0.5 A 0.25,0.25 0 0 1 8,2.25 v 0.5 A 0.25,0.25 0 0 1 7.75,3 H 7.25 A 0.25,0.25 0 0 1 7,2.75 Z m -2,0 A 0.25,0.25 0 0 1 5.25,2 h 0.5 A 0.25,0.25 0 0 1 6,2.25 v 0.5 A 0.25,0.25 0 0 1 5.75,3 H 5.25 A 0.25,0.25 0 0 1 5,2.75 Z m -3,0 A 0.25,0.25 0 0 1 2.25,2 h 1.5 A 0.25,0.25 0 0 1 4,2.25 v 0.5 A 0.25,0.25 0 0 1 3.75,3 H 2.25 A 0.25,0.25 0 0 1 2,2.75 Z m 0,4 A 0.25,0.25 0 0 1 2.25,6 h 0.5 A 0.25,0.25 0 0 1 3,6.25 v 0.5 A 0.25,0.25 0 0 1 2.75,7 H 2.25 A 0.25,0.25 0 0 1 2,6.75 Z m 2,0 A 0.25,0.25 0 0 1 4.25,6 h 5.5 A 0.25,0.25 0 0 1 10,6.25 v 0.5 A 0.25,0.25 0 0 1 9.75,7 H 4.25 A 0.25,0.25 0 0 1 4,6.75 Z"
     id="path12" />
</svg>
